<svg xmlns="http://www.w3.org/2000/svg" xmlns:xlink="http://www.w3.org/1999/xlink" viewBox="0 0 122.84 122.84"><defs><style>.cls-1{fill:none;}.cls-2{fill:#333;}.cls-3,.cls-7{font-size:36px;fill:#fcee21;font-family:Luminari-Regular, Luminari;}.cls-3{letter-spacing:0.1em;}.cls-4,.cls-6{fill:#e6e6e6;}.cls-4{letter-spacing:0.1em;}.cls-5{clip-path:url(#clip-path);}.cls-7{letter-spacing:0.13em;}</style><clipPath id="clip-path" transform="translate(0 -0.75)"><rect class="cls-1" x="10.57" y="21.42" width="73.58" height="40.28" transform="translate(-8.37 70.95) rotate(-69.07)"/></clipPath></defs><title>page-logo</title><g id="图层_2" data-name="图层 2"><g id="图层_1-2" data-name="图层 1"><rect class="cls-2" width="122.84" height="122.84" rx="57.65"/><text class="cls-3" transform="translate(43.13 70.43)">a<tspan class="cls-4" x="23.4" y="0">zz</tspan></text><g class="cls-5"><path class="cls-6" d="M66.13,48.78c2.31-6.9,1.64-13.83-1.27-18.55h0C58.11,18,62,7.77,62,7.77L60.09,7,39.64,60.48c-1.71-3.16-6-5.18-11-4.83-6.35.45-11.39,4.58-11.27,9.22s5.36,8,11.71,7.6c5.19-.37,9.6-3.16,10.88-6.74l2.13-6,12.46-32.6c6.83,2.53,11.15,10.91,9.65,20A20.75,20.75,0,0,1,55.09,61.5l1,.37A23.61,23.61,0,0,0,66.13,48.78Z" transform="translate(0 -0.75)"/></g><text class="cls-7" transform="translate(48.36 99.73)">i<tspan class="cls-6" x="14.33" y="0">fy</tspan></text></g></g></svg>