<svg xmlns="http://www.w3.org/2000/svg" xmlns:xlink="http://www.w3.org/1999/xlink" viewBox="0 0 201.49 75.59"><defs><style>.cls-1{fill:none;}.cls-2{fill:#e6e6e6;}.cls-3{clip-path:url(#clip-path);}</style><clipPath id="clip-path" transform="translate(-1.99 -7.04)"><rect class="cls-1" x="-4.83" y="21.42" width="73.58" height="40.28" transform="translate(-18.28 56.56) rotate(-69.07)"/></clipPath></defs><title>page-title</title><g id="图层_2" data-name="图层 2"><g id="图层_1-2" data-name="图层 1"><path class="cls-2" d="M39.61,60a16.11,16.11,0,0,0-.51-2,5.23,5.23,0,0,0-.72-1.48,2.89,2.89,0,0,0-1-.9,3.41,3.41,0,0,0-1.51-.3,3.65,3.65,0,0,0-1.46.28,4.94,4.94,0,0,0-1.15.69,3.71,3.71,0,0,0-.76.79,1.65,1.65,0,0,0-.3.61.31.31,0,0,1-.33.29,1.41,1.41,0,0,1-.93-.36,1.09,1.09,0,0,1-.44-.86,1,1,0,0,1,.08-.44c.55-.31,1.22-.64,2-1s1.62-.7,2.47-1a25.41,25.41,0,0,1,2.54-.78,9.84,9.84,0,0,1,2.26-.3,5,5,0,0,1,2.33.43,2.77,2.77,0,0,1,1.2,1.22,5,5,0,0,1,.49,1.86c.06.71.11,1.47.16,2.28.07,1.23.17,2.41.29,3.55a18.9,18.9,0,0,0,.54,3,6.82,6.82,0,0,0,.92,2.13,1.63,1.63,0,0,0,1.38.81,2.89,2.89,0,0,0,.87-.15,6.94,6.94,0,0,0,.9-.34c.28-.13.54-.26.77-.39l.45-.27a.37.37,0,0,1,.4.32.66.66,0,0,1-.08.32,3.16,3.16,0,0,1-.54.36c-.31.2-.69.42-1.15.69l-1.51.84c-.55.3-1.1.59-1.64.85s-1,.48-1.49.65a3.34,3.34,0,0,1-1.08.25,1.07,1.07,0,0,1-.81-.38,3.33,3.33,0,0,1-.6-1,10.11,10.11,0,0,1-.43-1.45c-.12-.56-.23-1.13-.32-1.73-.43.36-1,.78-1.66,1.28A19.48,19.48,0,0,1,37,69.74a18.74,18.74,0,0,1-2.43,1.1,7,7,0,0,1-2.4.45A4.18,4.18,0,0,1,30.5,71a3.57,3.57,0,0,1-1.21-.81A3.2,3.2,0,0,1,28.57,69a4.25,4.25,0,0,1-.23-1.38,2.61,2.61,0,0,1,.7-1.89,9,9,0,0,1,2.18-1.53c.46-.24,1.09-.56,1.91-1l2.5-1.2L38,60.87C38.74,60.5,39.27,60.2,39.61,60Zm1,5.58c-.07-.41-.14-.86-.21-1.34s-.15-.93-.22-1.36-.14-.81-.2-1.12-.1-.52-.12-.61l-1.3.5q-.72.28-1.44.63c-.48.23-.94.46-1.37.69a9.73,9.73,0,0,0-1.08.63,5.41,5.41,0,0,0-1.26,1.08A2,2,0,0,0,33,66a2.91,2.91,0,0,0,.61,1.84,2.26,2.26,0,0,0,1.91.79A4.3,4.3,0,0,0,37,68.34a10.07,10.07,0,0,0,1.37-.58,8.42,8.42,0,0,0,1.1-.65,4.87,4.87,0,0,0,.65-.5,5.82,5.82,0,0,0,.45-.49A.72.72,0,0,0,40.65,65.57Z" transform="translate(-1.99 -7.04)"/><path class="cls-2" d="M50.08,70.71a7.51,7.51,0,0,0,1.59-1.29,23.9,23.9,0,0,0,1.58-1.86c.53-.68,1.06-1.41,1.6-2.17l1.61-2.31c.88-1.29,1.72-2.53,2.5-3.71s1.4-2.13,1.85-2.88h-.57c-.89,0-1.86,0-2.9-.1s-2-.11-2.83-.11a5.33,5.33,0,0,0-1.65.18A2.38,2.38,0,0,0,52,57a.79.79,0,0,1-.31-.09.29.29,0,0,1-.2-.27c0-.07,0-.12,0-.14a9.67,9.67,0,0,0,1.15-1l1.44-1.37L55.34,53c.36-.34.58-.52.65-.52a.58.58,0,0,1,.36.09,1.12,1.12,0,0,1,.18.2,1.12,1.12,0,0,0,.18.23.87.87,0,0,0,.36.24,8,8,0,0,0,1.19.36,15.78,15.78,0,0,0,1.69.3c.62.09,1.29.16,2,.22s1.44.09,2.16.09a11.36,11.36,0,0,0,1.41-.09,10.67,10.67,0,0,0,1.26-.23s.06,0,.11.14a.73.73,0,0,1,.07.25.28.28,0,0,1,0,.13.16.16,0,0,0,0,.09A10.79,10.79,0,0,0,64.65,57c-.83,1.17-2,2.65-3.37,4.43a1.41,1.41,0,0,0-.27.36,2.41,2.41,0,0,1-.23.36c-1.06,1.34-2,2.49-2.78,3.43S56.5,67.34,55.88,68c.36,0,.78.14,1.28.26s1,.24,1.65.36,1.29.22,2,.32a17.52,17.52,0,0,0,2.36.14,8.18,8.18,0,0,0,2.17-.23,3.68,3.68,0,0,0,1.57-.92q.25-.25.24-.21s0,0,.12,0,.17.07.16.2,0,.22,0,.27a1.75,1.75,0,0,1-.51,1,5.63,5.63,0,0,1-1.4,1.17,9.53,9.53,0,0,1-2.15,1,9.09,9.09,0,0,1-2.75.39c-.62,0-1.3,0-2-.1s-1.49-.16-2.25-.26-1.54-.18-2.31-.25-1.49-.11-2.16-.11a3.62,3.62,0,0,0-1,.13l-1,.27c-.12,0-.18-.07-.18-.22s0-.13.08-.32Z" transform="translate(-1.99 -7.04)"/><path class="cls-2" d="M68.91,70.71a7.23,7.23,0,0,0,1.58-1.29,21.93,21.93,0,0,0,1.59-1.86c.53-.68,1.06-1.41,1.6-2.17l1.6-2.31q1.34-1.94,2.5-3.71t1.86-2.88h-.58c-.89,0-1.85,0-2.9-.1s-2-.11-2.82-.11a5.45,5.45,0,0,0-1.66.18,2.54,2.54,0,0,0-.9.57.79.79,0,0,1-.3-.09.28.28,0,0,1-.2-.27.22.22,0,0,1,0-.14,9.6,9.6,0,0,0,1.16-1l1.44-1.37L74.17,53c.36-.34.57-.52.64-.52a.56.56,0,0,1,.36.09.67.67,0,0,1,.18.2l.18.23a1,1,0,0,0,.36.24,8.36,8.36,0,0,0,1.19.36,16.73,16.73,0,0,0,1.69.3c.63.09,1.3.16,2,.22s1.44.09,2.16.09a11.21,11.21,0,0,0,1.4-.09,10.67,10.67,0,0,0,1.26-.23s.06,0,.11.14a.56.56,0,0,1,.07.25.28.28,0,0,1,0,.13.12.12,0,0,0,0,.09A11.26,11.26,0,0,0,83.47,57q-1.25,1.76-3.36,4.43a1.41,1.41,0,0,0-.27.36,1.88,1.88,0,0,1-.24.36c-1,1.34-2,2.49-2.77,3.43s-1.5,1.76-2.12,2.43c.36,0,.78.14,1.27.26s1,.24,1.66.36,1.28.22,2,.32a17.37,17.37,0,0,0,2.35.14,8.21,8.21,0,0,0,2.18-.23,3.68,3.68,0,0,0,1.57-.92c.17-.17.24-.24.23-.21s0,0,.13,0,.17.07.16.2,0,.22,0,.27a1.78,1.78,0,0,1-.5,1,5.69,5.69,0,0,1-1.41,1.17,9.44,9.44,0,0,1-2.14,1,9.14,9.14,0,0,1-2.75.39c-.63,0-1.3,0-2-.1s-1.48-.16-2.25-.26-1.53-.18-2.3-.25-1.49-.11-2.16-.11a3.75,3.75,0,0,0-1,.13l-1,.27c-.12,0-.18-.07-.18-.22a2.39,2.39,0,0,1,.07-.32Z" transform="translate(-1.99 -7.04)"/><path class="cls-2" d="M95.51,64.92c0,.5,0,1,0,1.46a3.49,3.49,0,0,0,.25,1.2,1.86,1.86,0,0,0,.65.81,2.06,2.06,0,0,0,1.22.31,5.07,5.07,0,0,0,.9-.09,6.73,6.73,0,0,0,1-.24c.3-.09.56-.19.79-.28a1.44,1.44,0,0,0,.41-.22c.08-.07.12-.07.15,0a.74.74,0,0,1,0,.27,1.68,1.68,0,0,1-.09.32.58.58,0,0,1-.18.24c-.24.12-.66.33-1.26.65s-1.31.63-2.13,1a21.59,21.59,0,0,1-2.25.84,6.36,6.36,0,0,1-1.82.35A1.66,1.66,0,0,1,91.88,71a1.77,1.77,0,0,1-.47-1.26c0-.17,0-.31,0-.43s0-.28,0-.47.07-.68.13-1.31.12-1.35.18-2.14S91.9,63.8,92,63,92,61.5,92,60.92V59.66A10.21,10.21,0,0,0,91.91,58a2.83,2.83,0,0,0-.36-1.12,1.36,1.36,0,0,0-.45-.41,1.24,1.24,0,0,0-.66-.17,1.07,1.07,0,0,0-.43.09,1,1,0,0,1-.33.09c-.05,0-.12-.07-.23-.21s-.1-.25,0-.33a8,8,0,0,1,1-.57l1.73-.87c.67-.33,1.32-.63,1.94-.88a4.38,4.38,0,0,1,1.33-.38.56.56,0,0,1,.54.24.93.93,0,0,1,.15.52v.14a10.32,10.32,0,0,1-.11,1.16c-.07.52-.15,1.17-.23,1.94s-.17,1.66-.24,2.66-.11,2.1-.11,3.28ZM94.07,46.2a1.65,1.65,0,0,1,.6.39,10.86,10.86,0,0,1,.84.83,11.39,11.39,0,0,1,.76.9,1.34,1.34,0,0,1,.32.58c0,.12-.14.3-.43.54s-.62.48-1,.74-.73.47-1.08.66a1.93,1.93,0,0,1-.74.29,1.46,1.46,0,0,1-.52-.34c-.27-.23-.56-.49-.84-.78s-.55-.57-.78-.84-.34-.46-.34-.56.16-.31.47-.56l1-.79a12.64,12.64,0,0,1,1.08-.72A5.91,5.91,0,0,1,94.07,46.2Z" transform="translate(-1.99 -7.04)"/><path class="cls-2" d="M109.27,71l.27,0a1.11,1.11,0,0,1,.27-.06c.14,0,.23.1.27.29a.41.41,0,0,1-.09.4l-.72.5-1,.6-1,.59-.87.5-.63.35-.83.46a8.21,8.21,0,0,1-.77.4,1.53,1.53,0,0,1-.47.16.46.46,0,0,1-.34-.18.51.51,0,0,1-.16-.32c0-.12,0-.19,0-.2l.15-.09A6.78,6.78,0,0,1,104,74a1.42,1.42,0,0,0,.56-.94,17.19,17.19,0,0,0,.29-1.87c.09-.84.18-1.82.25-2.93s.13-2.34.18-3.67.07-2.71.07-4.13V58.92c0-.49,0-.93,0-1.31l-.56,0-1-.13c-.36,0-.69-.1-1-.16s-.45-.14-.45-.24a1,1,0,0,0,0-.21c0-.1.08-.24.27-.43s.43-.41.71-.65l.81-.72.73-.65c.23-.19.41-.35.53-.47,0-.72,0-1.37,0-2s0-1.12.09-1.6a4.63,4.63,0,0,1,.29-1.42,3.68,3.68,0,0,1,.61-1A7.38,7.38,0,0,1,108,46.65a31.89,31.89,0,0,1,3-1.6l1.06-.51a6.09,6.09,0,0,1,.88-.34,8.43,8.43,0,0,1,.9-.2,7.08,7.08,0,0,1,1.08-.07,9.39,9.39,0,0,1,2.72.34,4.69,4.69,0,0,1,1.75.88c0,.1-.16.3-.47.62l-1.08,1.06c-.41.39-.82.8-1.22,1.2a7.07,7.07,0,0,0-.9,1,.26.26,0,0,1-.33.11c-.14,0-.19-.12-.14-.22a1.78,1.78,0,0,0,.12-.29.9.9,0,0,0,.06-.36,2.09,2.09,0,0,0-1-1.69,4.08,4.08,0,0,0-2.49-.72,2.07,2.07,0,0,0-1.44.52,3.62,3.62,0,0,0-.9,1.75,16.68,16.68,0,0,0-.41,2.68c-.09,1-.15,2.32-.2,3.91a10.62,10.62,0,0,0,1.31.16c.54,0,1.13,0,1.75,0h1.35q.74,0,1.44,0l1.33-.09a5.64,5.64,0,0,0,1-.17.49.49,0,0,1,.14.33,3.57,3.57,0,0,1-1.58,1.24,13.75,13.75,0,0,1-2.32.79,16.6,16.6,0,0,1-2.49.42c-.83.07-1.5.1-2,.1,0,.41,0,1,0,1.71s0,1.52-.07,2.36,0,1.69-.05,2.54,0,1.61,0,2.29,0,1.09,0,1.62,0,1,.05,1.4a6.38,6.38,0,0,0,.13,1Q109.09,70.93,109.27,71Z" transform="translate(-1.99 -7.04)"/><path class="cls-2" d="M118.81,81.87c.21-.24.54-.63,1-1.18s.9-1.18,1.42-1.88,1-1.44,1.58-2.23l1.53-2.25c.48-.71.9-1.35,1.25-1.94a7.83,7.83,0,0,0,.66-1.32L125,67.87c-.43-1.13-.88-2.24-1.35-3.35s-.94-2.16-1.41-3.17a27.59,27.59,0,0,0-1.38-2.64,11.66,11.66,0,0,0-1.32-1.82,1.66,1.66,0,0,0-1.13-.68.71.71,0,0,0-.32.09l-.33.16c-.07,0-.15,0-.25-.18s-.1-.28,0-.33l.85-.54c.46-.28,1-.59,1.56-.91s1.14-.62,1.68-.89a3.21,3.21,0,0,1,1.17-.39c.24,0,.52.21.84.65a10,10,0,0,1,1,1.74c.35.73.71,1.57,1.1,2.5s.77,1.92,1.15,2.94.76,2,1.13,3.08.73,2,1.07,2.88c.31-.48.71-1.17,1.2-2.06s1-1.83,1.42-2.84a27.93,27.93,0,0,0,1.17-3,8,8,0,0,0,.49-2.48,2,2,0,0,0-.5-1.5,1.65,1.65,0,0,0-1.12-.45l-.74,0a3.39,3.39,0,0,0-.59.09.5.5,0,0,1-.22-.09.31.31,0,0,1-.14-.27c0-.12.26-.25.79-.39a18,18,0,0,1,1.84-.4c.69-.12,1.38-.22,2.05-.31a14,14,0,0,1,1.4-.12,2,2,0,0,1,1.23.32,1,1,0,0,1,.39.76,11.44,11.44,0,0,1-.92,2.25c-.46.92-1,1.93-1.67,3s-1.34,2.22-2.07,3.39-1.43,2.26-2.11,3.29-1.27,2-1.81,2.77-.93,1.42-1.17,1.8c-.48.75-.94,1.52-1.37,2.32s-.83,1.61-1.19,2.42-.68,1.57-1,2.3a12.51,12.51,0,0,0-.6,2c-.07.36,0,.59.2.7a1.19,1.19,0,0,0,.79.07,4.62,4.62,0,0,0,1.06-.34,4.16,4.16,0,0,0,1-.58c.12-.09.19-.11.23,0a.5.5,0,0,1,0,.27,1.06,1.06,0,0,1-.07.38.58.58,0,0,1-.18.27l-.83.32c-.52.22-1.16.45-1.9.7s-1.53.49-2.36.71a9.1,9.1,0,0,1-2.18.32c-.6,0-.9-.19-.9-.58a.25.25,0,0,1,0-.1A.24.24,0,0,0,118.81,81.87Z" transform="translate(-1.99 -7.04)"/><path class="cls-2" d="M148.2,71.77a3.62,3.62,0,0,1-2.5-.94,3.3,3.3,0,0,1-1.06-2.62,3.42,3.42,0,0,1,1-2.47,3.36,3.36,0,0,1,2.48-1,3.46,3.46,0,0,1,2.52,1,3.61,3.61,0,0,1,0,5.09A3.52,3.52,0,0,1,148.2,71.77Z" transform="translate(-1.99 -7.04)"/><path class="cls-2" d="M168.68,59.65l-4.23,11.53h-2.74L174,37.59h3.2l12.84,33.59h-2.94L182.8,59.65Zm13.24-2.47c-3.71-9.92-5.62-14.72-6.3-17h-.05c-.81,2.56-3,8.5-6,17Z" transform="translate(-1.99 -7.04)"/><path class="cls-2" d="M203.48,37.59V71.18h-2.7V37.59Z" transform="translate(-1.99 -7.04)"/><g class="cls-3"><path class="cls-2" d="M50.73,48.78C53,41.88,52.36,35,49.45,30.23h0C42.71,18,46.59,7.77,46.59,7.77L44.68,7,24.24,60.48c-1.71-3.16-6-5.18-11-4.83C6.91,56.1,1.87,60.23,2,64.87s5.37,8,11.72,7.6c5.19-.37,9.59-3.16,10.87-6.74l2.13-6,12.47-32.6c6.82,2.53,11.14,10.91,9.64,20A20.71,20.71,0,0,1,39.69,61.5l1,.37A23.7,23.7,0,0,0,50.73,48.78Z" transform="translate(-1.99 -7.04)"/></g></g></g></svg>